<?xml version="1.0" encoding="utf-8"?>
<svg viewBox="5321.067 3583.817 1840.348 306.042" style="fill-rule:evenodd;clip-rule:evenodd;stroke-linecap:round;stroke-linejoin:round;stroke-miterlimit:1.5;" xmlns="http://www.w3.org/2000/svg">
  <g id="ArtBoard1" transform="matrix(1, 0, 0, 1, 3478.3364776125018, 1699.5305429031039)">
    <rect x="0" y="0" width="3956.69" height="3425.2" style="fill:none;"/>
    <clipPath id="_clip1">
      <rect x="0" y="0" width="3956.69" height="3425.2"/>
    </clipPath>
    <g clip-path="url(#_clip1)">
      <g transform="matrix(0, -1.32624, 1.32624, 0, -792.516308, 1081.699845)" style="transform-origin: 3555.24px 955.905px;">
        <g transform="matrix(6.12323e-17,1,-1,6.12323e-17,5606.51,-1621.21)">
          <path d="M1883.98,2079.68C1883.98,2067.51 1886.19,2056.24 1890.6,2045.87C1895.01,2035.5 1901.03,2026.44 1908.66,2018.69C1916.3,2010.93 1925.18,2004.85 1935.31,2000.44C1945.45,1996.03 1956.36,1993.83 1968.04,1993.83C1968.16,1993.83 2073.38,1994.03 2073.5,1994.03C2085.05,1994.08 2095.84,1996.29 2105.87,2000.65C2116,2005.06 2124.89,2011.14 2132.52,2018.89C2140.15,2026.64 2146.17,2035.71 2150.58,2046.08C2154.99,2056.45 2157.2,2067.72 2157.2,2079.88C2157.2,2092.05 2154.99,2103.31 2150.58,2113.69C2146.17,2124.06 2140.15,2133.12 2132.52,2140.87C2124.89,2148.62 2116,2154.7 2105.87,2159.12C2095.84,2163.48 2085.05,2165.69 2073.51,2165.73C2073.39,2165.73 1968.17,2165.53 1968.04,2165.53C1956.36,2165.53 1945.45,2163.32 1935.31,2158.91C1925.18,2154.5 1916.3,2148.41 1908.66,2140.66C1901.03,2132.91 1895.01,2123.85 1890.6,2113.48C1886.19,2103.11 1883.98,2091.84 1883.98,2079.68ZM2108.91,2079.88C2108.91,2067.24 2105.45,2057.23 2098.54,2049.84C2091.68,2042.51 2083.31,2038.81 2073.41,2038.75C2073.32,2038.75 1968.13,2038.54 1968.04,2038.54C1958.03,2038.54 1949.56,2042.24 1942.65,2049.63C1935.73,2057.02 1932.27,2067.04 1932.27,2079.68C1932.27,2092.31 1935.73,2102.33 1942.65,2109.72C1949.56,2117.12 1958.03,2120.81 1968.04,2120.81C1968.19,2120.81 2073.44,2121.02 2073.59,2121.02C2083.41,2120.91 2091.72,2117.21 2098.54,2109.93C2105.45,2102.54 2108.91,2092.52 2108.91,2079.88Z" style="fill:rgb(35,31,32);fill-rule:nonzero;"/>
        </g>
        <g transform="matrix(6.12323e-17,1,-1,6.12323e-17,5606.51,-1621.21)">
          <path d="M2312.8,1995.82C2322.58,1995.82 2331.52,1997.43 2339.63,2000.65C2347.74,2003.87 2354.72,2008.52 2360.56,2014.6C2366.4,2020.68 2370.93,2028.02 2374.15,2036.6C2377.37,2045.19 2378.98,2054.84 2378.98,2065.57L2378.98,2162.16L2330.69,2162.16L2330.69,2074.52C2330.69,2063.79 2327.89,2055.44 2322.28,2049.48C2316.68,2043.52 2309.35,2040.54 2300.28,2040.54C2291.22,2040.54 2283.89,2043.52 2278.28,2049.48C2272.68,2055.44 2269.88,2063.79 2269.88,2074.52L2269.88,2162.16L2221.59,2162.16L2221.59,1997.61L2264.51,1997.61L2264.51,2013.71C2268.33,2010.37 2272.74,2007.39 2277.75,2004.77C2282.04,2002.62 2287.17,2000.59 2293.13,1998.68C2299.09,1996.78 2305.65,1995.82 2312.8,1995.82Z" style="fill:rgb(35,31,32);fill-rule:nonzero;"/>
        </g>
        <g transform="matrix(6.12323e-17,1,-1,6.12323e-17,5606.51,-1621.21)">
          <path d="M2538.16,2163.95C2531.01,2163.95 2524.57,2163.05 2518.84,2161.26C2513.12,2159.47 2508.23,2157.39 2504.18,2155C2499.41,2152.38 2495.23,2149.4 2491.66,2146.06L2491.66,2162.16L2448.73,2162.16L2448.73,1936.8L2497.02,1936.8L2497.02,2010.13C2500.12,2007.51 2503.82,2005.12 2508.11,2002.98C2511.69,2001.07 2516.04,1999.4 2521.17,1997.97C2526.3,1996.54 2531.96,1995.82 2538.16,1995.82C2548.41,1995.82 2558.19,1997.91 2567.49,2002.08C2576.79,2006.26 2584.96,2012.1 2591.99,2019.61C2599.03,2027.12 2604.63,2036 2608.81,2046.26C2612.98,2056.51 2615.07,2067.72 2615.07,2079.88C2615.07,2092.05 2612.98,2103.25 2608.81,2113.51C2604.63,2123.76 2599.03,2132.64 2591.99,2140.16C2584.96,2147.67 2576.79,2153.51 2567.49,2157.68C2558.19,2161.86 2548.41,2163.95 2538.16,2163.95ZM2566.78,2079.88C2566.78,2068.2 2563.32,2058.72 2556.4,2051.45C2549.49,2044.17 2541.02,2040.54 2531.01,2040.54C2520.99,2040.54 2512.52,2044.17 2505.61,2051.45C2498.69,2058.72 2495.23,2068.2 2495.23,2079.88C2495.23,2091.57 2498.69,2101.05 2505.61,2108.32C2512.52,2115.59 2520.99,2119.23 2531.01,2119.23C2541.02,2119.23 2549.49,2115.59 2556.4,2108.32C2563.32,2101.05 2566.78,2091.57 2566.78,2079.88Z" style="fill:rgb(35,31,32);fill-rule:nonzero;"/>
        </g>
        <g transform="matrix(6.12323e-17,1,-1,6.12323e-17,5606.51,-1624.21)">
          <path d="M2953.1,2163.95C2943.32,2163.95 2934.38,2162.34 2926.27,2159.12C2918.16,2155.9 2911.19,2151.25 2905.35,2145.16C2899.5,2139.08 2894.97,2131.75 2891.75,2123.17C2888.53,2114.58 2886.92,2104.92 2886.92,2094.19L2886.92,1997.61L2935.22,1997.61L2935.22,2085.25C2935.22,2095.98 2938.02,2104.33 2943.62,2110.29C2949.22,2116.25 2956.56,2119.23 2965.62,2119.23C2974.68,2119.23 2982.01,2116.25 2987.62,2110.29C2993.22,2104.33 2996.03,2095.98 2996.03,2085.25L2996.03,1997.61L3044.32,1997.61L3044.32,2162.16L3001.38,2162.16L3001.39,2146.06C2997.34,2149.4 2992.81,2152.38 2987.8,2155C2983.51,2157.39 2978.44,2159.47 2972.6,2161.26C2966.75,2163.05 2960.25,2163.95 2953.1,2163.95Z" style="fill:rgb(35,31,32);fill-rule:nonzero;"/>
        </g>
        <g transform="matrix(6.12323e-17,1,-1,6.12323e-17,5606.51,-1624.21)">
          <path d="M3207.07,1995.82C3216.85,1995.82 3225.79,1997.43 3233.9,2000.65C3242.01,2003.87 3248.98,2008.52 3254.83,2014.6C3260.67,2020.68 3265.2,2028.02 3268.42,2036.6C3271.64,2045.19 3273.25,2054.84 3273.25,2065.57L3273.25,2162.16L3224.96,2162.16L3224.96,2074.52C3224.96,2063.79 3222.16,2055.44 3216.55,2049.48C3210.95,2043.52 3203.62,2040.54 3194.55,2040.54C3185.49,2040.54 3178.16,2043.52 3172.55,2049.48C3166.95,2055.44 3164.15,2063.79 3164.15,2074.52L3164.15,2162.16L3115.86,2162.16L3115.86,1997.61L3158.8,1997.61L3158.78,2013.71C3162.6,2010.37 3167.01,2007.39 3172.02,2004.77C3176.31,2002.62 3181.44,2000.59 3187.4,1998.68C3193.36,1996.78 3199.92,1995.82 3207.07,1995.82Z" style="fill:rgb(35,31,32);fill-rule:nonzero;"/>
        </g>
        <g transform="matrix(6.12323e-17,1,-1,6.12323e-17,5767.13,-1441.44)">
          <path d="M2644.03,2158.23L2644.03,2322.78L2601.11,2322.78L2601.11,2306.68C2597.53,2310.02 2593.36,2313 2588.59,2315.62C2584.53,2318.01 2579.65,2320.09 2573.92,2321.88C2568.2,2323.67 2561.76,2324.57 2554.61,2324.57C2544.35,2324.57 2534.58,2322.48 2525.28,2318.31C2515.97,2314.13 2507.81,2308.29 2500.77,2300.78C2493.74,2293.27 2488.13,2284.38 2483.96,2274.13C2479.79,2263.88 2477.7,2252.67 2477.7,2240.5C2477.7,2228.34 2479.79,2217.13 2483.96,2206.88C2488.13,2196.63 2493.74,2187.74 2500.77,2180.23C2507.81,2172.72 2515.97,2166.88 2525.28,2162.7C2534.58,2158.53 2544.35,2156.44 2554.61,2156.44C2560.81,2156.44 2566.47,2157.16 2571.6,2158.59C2576.72,2160.02 2581.08,2161.69 2584.66,2163.6C2588.95,2165.74 2592.64,2168.13 2595.74,2170.75L2595.74,2158.23L2644.03,2158.23ZM2525.99,2240.5C2525.99,2252.19 2529.45,2261.67 2536.36,2268.94C2543.28,2276.22 2551.75,2279.85 2561.76,2279.85C2571.78,2279.85 2580.24,2276.22 2587.16,2268.94C2594.07,2261.67 2597.53,2252.19 2597.53,2240.5C2597.53,2228.82 2594.07,2219.34 2587.16,2212.07C2580.24,2204.79 2571.78,2201.16 2561.76,2201.16C2551.75,2201.16 2543.28,2204.79 2536.36,2212.07C2529.45,2219.34 2525.99,2228.82 2525.99,2240.5Z" style="fill:rgb(35,31,32);fill-rule:nonzero;"/>
        </g>
      </g>
      <g transform="matrix(1.76135,0,0,0.483243,1712.6,-1655.2)">
        <rect x="0" y="0" width="1274.08" height="3425.2" style="fill:none;stroke:rgb(35,31,32);stroke-width:0.81px;"/>
      </g>
    </g>
  </g>
</svg>